<svg width="118" height="84" viewBox="0 0 118 84" fill="none" xmlns="http://www.w3.org/2000/svg">
<path d="M1 82.9998C1.56585 80.5006 4.44416 77.628 6.50387 76.0738C7.34133 75.44 8.73522 74.3291 9.84052 74.8289C11.1722 75.4287 11.0779 77.9807 12.1039 78.9257C12.4095 76.0285 14.8219 71.9959 16.9514 70.0606C18.3604 68.7818 20.0787 69.0779 21.5499 70.2379C23.5776 69.0006 24.9696 66.7994 27.6517 67.122C29.934 67.3974 32.2672 68.8441 33.9629 70.3549C36.4771 72.5938 38.584 74.612 40.0307 77.6884C41.0643 79.8876 41.2982 82.251 41.8207 84.7087C42.5223 88.0039 41.136 89.9447 37.6202 89.9202C37.5956 91.1576 36.6186 92.8645 35.9226 93.8812C34.8248 95.4788 33.6234 95.3713 32.2898 96.3445C31.3581 97.0255 30.8544 98.2024 30.166 99.0908C29.0965 100.47 27.8913 101.681 26.9972 103.161" stroke="#D0D5DD" stroke-width="1.32033" stroke-linecap="round" stroke-linejoin="round"/>
<path d="M28.6779 67.3205C28.6779 67.3205 34.7948 61.4734 38.2767 58.9893C41.5756 56.6335 44.5369 57.4539 47.683 60.0116C50.7235 62.4844 52.4343 66.253 52.9964 70.1008C53.4698 73.3337 51.4686 75.1689 49.4127 77.5531C47.8396 79.3808 43.4976 83.7775 41.8264 84.7205" stroke="#D0D5DD" stroke-width="1.32033" stroke-linecap="round" stroke-linejoin="round"/>
<path d="M42.1625 57.595C44.6541 55.4881 49.1319 50.2842 49.1319 50.2842" stroke="#D0D5DD" stroke-width="1.32033" stroke-linecap="round" stroke-linejoin="round"/>
<path d="M53.3132 71.3588C56.0878 67.8769 58.2663 65.0193 61.3031 61.7713C62.3801 60.6188 63.6797 59.4721 64.321 58.1291C65.0339 56.6202 65.1132 53.7324 65.1132 52.0556C65.1132 45.4917 64.5058 38.2714 62.199 32.0621C61.5445 30.3042 59.8885 25.3171 58.0494 24.4514C56.2557 23.6064 55.6257 25.1776 55.8332 26.4337C56.399 29.8402 57.2384 33.3089 57.5949 36.3098" stroke="#D0D5DD" stroke-width="1.32033" stroke-linecap="round" stroke-linejoin="round"/>
<path d="M25.5966 23.9875L21 23.4575" stroke="#FBC02D" stroke-width="1.32033" stroke-linecap="round" stroke-linejoin="round"/>
<path d="M30.4139 13.7314L27.7185 11.9622" stroke="#FBC02D" stroke-width="1.32033" stroke-linecap="round" stroke-linejoin="round"/>
<path d="M56.6426 24.2342C55.4486 20.4618 50.7501 19.3301 51.9384 24.2342C52.3704 26.0128 52.493 28.5252 52.9362 30.3397C53.3455 32.0109 53.8793 35.0665 53.8793 35.0665" stroke="#D0D5DD" stroke-width="1.32033" stroke-linecap="round" stroke-linejoin="round"/>
<path d="M58.8233 60.1885C59.3552 60.2526 60.2888 59.6584 60.2888 59.6584" stroke="#D0D5DD" stroke-width="1.32033" stroke-linecap="round" stroke-linejoin="round"/>
<path d="M51.7496 22.5444C50.8895 21.3599 49.9144 19.1757 47.7283 20.0603C45.7195 20.8733 46.6588 22.8047 47.3378 24.3665C48.6468 27.3844 50.4802 34.616 50.4802 34.616" stroke="#D0D5DD" stroke-width="1.32033" stroke-linecap="round" stroke-linejoin="round"/>
<path d="M68.195 59.6589C68.6571 59.1893 69.2475 58.9818 69.7869 59.1289" stroke="#D0D5DD" stroke-width="1.32033" stroke-linecap="round" stroke-linejoin="round"/>
<path d="M45.9851 22.1673C42.0091 22.0711 44.1725 28.4238 44.8025 29.9422C46.1228 33.1166 46.998 35.9779 48.2674 39.1354C48.6277 40.0295 49.4444 42.1722 49.4444 42.1722" stroke="#D0D5DD" stroke-width="1.32033" stroke-linecap="round" stroke-linejoin="round"/>
<path d="M74.0201 39.2048C75.0632 37.3228 76.2355 35.5153 77.5283 33.7952C78.8147 32.1128 81.146 27.9481 83.9414 28.8798C86.631 29.7758 83.9414 34.0027 83.2133 35.7059C81.9495 38.6521 80.9612 41.6964 79.6956 44.6257C78.8996 46.4703 76.2608 50.5935 76.8663 52.4646" stroke="#D0D5DD" stroke-width="1.32033" stroke-linecap="round" stroke-linejoin="round"/>
<path d="M47.8607 51.523C47.1421 48.1731 45.6595 44.9534 44.1242 41.9035C43.3112 40.2814 40.233 35.4339 43.8809 35.447C45.2408 35.447 47.1496 37.3823 48.2662 39.1364" stroke="#D0D5DD" stroke-width="1.32033" stroke-linecap="round" stroke-linejoin="round"/>
<path d="M75.379 36.9184C76.0071 30.9053 76.0524 24.0245 74.5548 18.2886C74.0568 16.3817 72.2913 12.9866 69.9978 15.1311C68.7001 16.344 69.7337 19.7674 70.16 22.5438C70.5936 25.3275 70.8243 28.139 70.8503 30.9562C70.0298 26.4539 69.811 20.8406 66.6064 17.2154C65.6633 16.1365 62.9284 14.786 61.9853 16.6967C61.1704 18.3452 63.0472 20.95 63.5527 22.4835C64.4316 25.1467 64.7523 26.3784 65.3747 30.5846C64.6353 27.5271 62.8737 19.9428 59.0938 18.8903C57.0586 18.3244 56.7455 20.4106 57.1208 22.0685C57.2868 22.8079 57.9432 24.0094 58.0413 24.4564" stroke="#D0D5DD" stroke-width="1.32033" stroke-linecap="round" stroke-linejoin="round"/>
<path d="M76.8757 50.9614C76.8757 50.9614 81.3592 56.9651 83.5792 59.6586" stroke="#D0D5DD" stroke-width="1.32033" stroke-linecap="round" stroke-linejoin="round"/>
<path d="M62.3593 60.6758C62.678 62.9713 69.5626 70.9856 69.5626 70.9856" stroke="#D0D5DD" stroke-width="1.32033" stroke-linecap="round" stroke-linejoin="round"/>
<path fill-rule="evenodd" clip-rule="evenodd" d="M77.1181 66.9767C74.5491 68.7535 71.8368 70.3171 68.9227 71.1923C70.6938 73.9103 73.1779 76.8791 75.3149 79.2538C76.258 80.295 78.2838 82.2114 79.689 82.4717C81.2809 82.7697 83.4104 81.6116 84.6194 80.7628C87.3016 78.8766 89.1086 77.2073 91.4738 74.9156C92.4641 73.9556 93.8542 72.1241 94.2182 70.766C94.6615 69.1232 94.1032 68.8987 92.7262 67.5595C89.7631 64.685 87.3582 61.735 83.9649 58.9604C83.0483 61.2729 80.1549 64.8755 77.1181 66.9767Z" stroke="#D0D5DD" stroke-width="1.32033" stroke-linecap="round" stroke-linejoin="round"/>
<path d="M79.6895 82.4712C79.1501 84.414 79.5895 86.2002 80.2271 87.5526C80.9306 89.0464 82.8677 89.8688 83.3864 91.3985C83.8485 92.7697 83.46 94.2277 84.4521 95.5047C85.1141 96.3554 88.5376 98.4735 89.5919 98.5603" stroke="#D0D5DD" stroke-width="1.32033" stroke-linecap="round" stroke-linejoin="round"/>
<path d="M94.3658 69.7615C100.841 70.4537 105.536 76.3895 108.953 81.386C108.908 79.5771 110.687 78.9566 112.073 79.0735C115.052 79.3263 115.365 81.9726 117 83.8493" stroke="#D0D5DD" stroke-width="1.32033" stroke-linecap="round" stroke-linejoin="round"/>
<path d="M95.2285 19.7865L98.2728 17.4438" stroke="#FBC02D" stroke-width="1.32033" stroke-linecap="round" stroke-linejoin="round"/>
<path d="M93.1472 13.7316L95.6219 10.9023" stroke="#FBC02D" stroke-width="1.32033" stroke-linecap="round" stroke-linejoin="round"/>
<path d="M65.7363 3.47467L66.4436 1" stroke="#FBC02D" stroke-width="1.32033" stroke-linecap="round" stroke-linejoin="round"/>
<path d="M49.823 7.2359L48.7611 4.21802" stroke="#FBC02D" stroke-width="1.32033" stroke-linecap="round" stroke-linejoin="round"/>
</svg>
