<svg width="576" height="132" viewBox="0 0 576 132" fill="none" xmlns="http://www.w3.org/2000/svg">
<g clip-path="url(#clip0_1_783)">
<path d="M575.507 131.509L575.507 0.491211L0.493164 0.491186L0.493158 131.509L575.507 131.509Z" stroke="#D7D7D7" stroke-miterlimit="10" stroke-linecap="square"/>
<path d="M575.507 12.3296L0.493176 12.3295" stroke="#D7D7D7" stroke-miterlimit="10" stroke-linecap="square"/>
<path d="M575.507 24.2269L0.493176 24.2268" stroke="#D7D7D7" stroke-miterlimit="10" stroke-linecap="square"/>
<path d="M575.507 36.1241L0.493176 36.1241" stroke="#D7D7D7" stroke-miterlimit="10" stroke-linecap="square"/>
<path d="M575.507 48.0214L0.493176 48.0214" stroke="#D7D7D7" stroke-miterlimit="10" stroke-linecap="square"/>
<path d="M575.507 59.9187L0.493176 59.9187" stroke="#D7D7D7" stroke-miterlimit="10" stroke-linecap="square"/>
<path d="M575.507 71.8062L0.493176 71.8062" stroke="#D7D7D7" stroke-miterlimit="10" stroke-linecap="square"/>
<path d="M575.507 83.7035L0.493176 83.7035" stroke="#D7D7D7" stroke-miterlimit="10" stroke-linecap="square"/>
<path d="M575.507 95.6008L0.493176 95.6008" stroke="#D7D7D7" stroke-miterlimit="10" stroke-linecap="square"/>
<path d="M575.507 107.498L0.493176 107.498" stroke="#D7D7D7" stroke-miterlimit="10" stroke-linecap="square"/>
<path d="M575.507 119.395L0.493176 119.395" stroke="#D7D7D7" stroke-miterlimit="10" stroke-linecap="square"/>
<path d="M564.184 131.509L564.184 0.491211" stroke="#D7D7D7" stroke-miterlimit="10" stroke-linecap="square"/>
<path d="M551.342 131.509L551.342 0.491211" stroke="#D7D7D7" stroke-miterlimit="10" stroke-linecap="square"/>
<path d="M538.501 131.509L538.501 0.491211" stroke="#D7D7D7" stroke-miterlimit="10" stroke-linecap="square"/>
<path d="M525.649 131.509L525.649 0.491211" stroke="#D7D7D7" stroke-miterlimit="10" stroke-linecap="square"/>
<path d="M512.808 131.509L512.808 0.491211" stroke="#D7D7D7" stroke-miterlimit="10" stroke-linecap="square"/>
<path d="M499.966 131.509L499.966 0.491211" stroke="#D7D7D7" stroke-miterlimit="10" stroke-linecap="square"/>
<path d="M487.115 131.509L487.115 0.491211" stroke="#D7D7D7" stroke-miterlimit="10" stroke-linecap="square"/>
<path d="M474.273 131.509L474.273 0.491211" stroke="#D7D7D7" stroke-miterlimit="10" stroke-linecap="square"/>
<path d="M461.431 131.509L461.431 0.491211" stroke="#D7D7D7" stroke-miterlimit="10" stroke-linecap="square"/>
<path d="M448.59 131.509L448.59 0.491211" stroke="#D7D7D7" stroke-miterlimit="10" stroke-linecap="square"/>
<path d="M435.738 131.509L435.738 0.491211" stroke="#D7D7D7" stroke-miterlimit="10" stroke-linecap="square"/>
<path d="M422.896 131.509L422.896 0.491211" stroke="#D7D7D7" stroke-miterlimit="10" stroke-linecap="square"/>
<path d="M410.055 131.509L410.055 0.491211" stroke="#D7D7D7" stroke-miterlimit="10" stroke-linecap="square"/>
<path d="M397.213 131.509L397.213 0.491211" stroke="#D7D7D7" stroke-miterlimit="10" stroke-linecap="square"/>
<path d="M384.362 131.509L384.362 0.491196" stroke="#D7D7D7" stroke-miterlimit="10" stroke-linecap="square"/>
<path d="M371.52 131.509L371.52 0.491196" stroke="#D7D7D7" stroke-miterlimit="10" stroke-linecap="square"/>
<path d="M358.678 131.509L358.678 0.491196" stroke="#D7D7D7" stroke-miterlimit="10" stroke-linecap="square"/>
<path d="M345.827 131.509L345.827 0.491196" stroke="#D7D7D7" stroke-miterlimit="10" stroke-linecap="square"/>
<path d="M332.985 131.509L332.985 0.491196" stroke="#D7D7D7" stroke-miterlimit="10" stroke-linecap="square"/>
<path d="M320.144 131.509L320.144 0.491196" stroke="#D7D7D7" stroke-miterlimit="10" stroke-linecap="square"/>
<path d="M307.302 131.509L307.302 0.491196" stroke="#D7D7D7" stroke-miterlimit="10" stroke-linecap="square"/>
<path d="M294.45 131.509L294.45 0.491196" stroke="#D7D7D7" stroke-miterlimit="10" stroke-linecap="square"/>
<path d="M281.609 131.509L281.609 0.491196" stroke="#D7D7D7" stroke-miterlimit="10" stroke-linecap="square"/>
<path d="M268.767 131.509L268.767 0.491196" stroke="#D7D7D7" stroke-miterlimit="10" stroke-linecap="square"/>
<path d="M255.925 131.509L255.925 0.491196" stroke="#D7D7D7" stroke-miterlimit="10" stroke-linecap="square"/>
<path d="M243.074 131.509L243.074 0.491196" stroke="#D7D7D7" stroke-miterlimit="10" stroke-linecap="square"/>
<path d="M230.232 131.509L230.232 0.491196" stroke="#D7D7D7" stroke-miterlimit="10" stroke-linecap="square"/>
<path d="M217.391 131.509L217.391 0.491196" stroke="#D7D7D7" stroke-miterlimit="10" stroke-linecap="square"/>
<path d="M204.539 131.509L204.539 0.491196" stroke="#D7D7D7" stroke-miterlimit="10" stroke-linecap="square"/>
<path d="M191.698 131.509L191.698 0.491196" stroke="#D7D7D7" stroke-miterlimit="10" stroke-linecap="square"/>
<path d="M178.856 131.509L178.856 0.491196" stroke="#D7D7D7" stroke-miterlimit="10" stroke-linecap="square"/>
<path d="M166.014 131.509L166.014 0.491196" stroke="#D7D7D7" stroke-miterlimit="10" stroke-linecap="square"/>
<path d="M153.163 131.509L153.163 0.491196" stroke="#D7D7D7" stroke-miterlimit="10" stroke-linecap="square"/>
<path d="M140.321 131.509L140.321 0.491196" stroke="#D7D7D7" stroke-miterlimit="10" stroke-linecap="square"/>
<path d="M127.479 131.509L127.479 0.491196" stroke="#D7D7D7" stroke-miterlimit="10" stroke-linecap="square"/>
<path d="M114.628 131.509L114.638 0.491196" stroke="#D7D7D7" stroke-miterlimit="10" stroke-linecap="square"/>
<path d="M101.786 131.509L101.786 0.491196" stroke="#D7D7D7" stroke-miterlimit="10" stroke-linecap="square"/>
<path d="M88.9447 131.509L88.9447 0.491196" stroke="#D7D7D7" stroke-miterlimit="10" stroke-linecap="square"/>
<path d="M76.103 131.509L76.103 0.491196" stroke="#D7D7D7" stroke-miterlimit="10" stroke-linecap="square"/>
<path d="M63.2515 131.509L63.2515 0.491196" stroke="#D7D7D7" stroke-miterlimit="10" stroke-linecap="square"/>
<path d="M50.4098 131.509L50.4098 0.491196" stroke="#D7D7D7" stroke-miterlimit="10" stroke-linecap="square"/>
<path d="M37.5682 131.509L37.5682 0.49118" stroke="#D7D7D7" stroke-miterlimit="10" stroke-linecap="square"/>
<path d="M24.7266 131.509L24.7267 0.49118" stroke="#D7D7D7" stroke-miterlimit="10" stroke-linecap="square"/>
<path d="M11.875 131.509L11.875 0.49118" stroke="#D7D7D7" stroke-miterlimit="10" stroke-linecap="square"/>
</g>
<defs>
<clipPath id="clip0_1_783">
<rect width="132" height="576" fill="white" transform="translate(576) rotate(90)"/>
</clipPath>
</defs>
</svg>
