<?xml version="1.0" encoding="UTF-8"?>
<svg version="1.1" xmlns="http://www.w3.org/2000/svg" width="500" height="500">
<path d="M0 0 C165 0 330 0 500 0 C500 165 500 330 500 500 C335 500 170 500 0 500 C0 335 0 170 0 0 Z " fill="#FFFEFE" transform="translate(0,0)"/>
<path d="M0 0 C3.19341019 1.5967051 5.53686877 3.0533004 8.31640625 5.203125 C9.15300781 5.84636719 9.98960937 6.48960937 10.8515625 7.15234375 C12.19347656 8.19068359 12.19347656 8.19068359 13.5625 9.25 C20.49046527 14.57258849 27.44855969 19.84205045 34.5 25 C42.12778069 30.58609376 49.65645777 36.29277267 57.1640625 42.0390625 C63.6575178 47.00013897 70.21658485 51.86350775 76.80957031 56.69116211 C83.90363623 61.89877711 90.90284928 67.22721387 97.88476562 72.58398438 C98.71169922 73.21755859 99.53863281 73.85113281 100.390625 74.50390625 C101.11282227 75.05892822 101.83501953 75.6139502 102.57910156 76.18579102 C104.81088563 77.96609033 104.81088563 77.96609033 106.73807198 78.88541621 C109.74845848 80.57234103 111.66867928 81.84278105 112.64447105 85.25097334 C112.88588477 88.17626122 112.89890209 91.03046842 112.84178162 93.96540833 C112.84776259 95.08449024 112.85374356 96.20357216 112.85990578 97.35656565 C112.87145605 101.11456105 112.83290366 104.8703793 112.79467773 108.62817383 C112.79270365 111.31858252 112.79350221 114.00885699 112.79777527 116.69924927 C112.80144514 122.49544209 112.77949043 128.29108318 112.7401104 134.08713722 C112.68321129 142.46715025 112.66498942 150.8468966 112.65619446 159.22708186 C112.64087545 172.82333275 112.59429498 186.41928961 112.52807617 200.01538086 C112.46381923 213.22239715 112.41427221 226.42933356 112.38452148 239.63647461 C112.38268242 240.45061078 112.38084336 241.26474696 112.37894856 242.10355393 C112.36981327 246.18785171 112.36096732 250.27215005 112.35226524 254.35644877 C112.27970244 288.23789308 112.15065968 322.11879059 112 356 C75.04 356 38.08 356 0 356 C0 238.52 0 121.04 0 0 Z " fill="#FF914D" transform="translate(388,144)"/>
<path d="M0 0 C100.32 0 200.64 0 304 0 C304 90.75 304 181.5 304 275 C303.67 275 303.34 275 303 275 C303 184.58 303 94.16 303 1 C294.83598876 6.8314366 286.74667401 12.63223467 278.8125 18.75 C272.09111021 23.90306551 265.33373316 28.99687204 258.5 34 C251.77491782 38.92549154 245.11946708 43.93348707 238.5 49 C231.11358208 54.65353395 223.66805534 60.21470194 216.1640625 65.7109375 C210.22328567 70.07277032 204.3524674 74.52054548 198.5 79 C191.11358208 84.65353395 183.66805534 90.21470194 176.1640625 95.7109375 C170.22328431 100.07277132 164.35251303 104.5206034 158.5 109 C151.08758475 114.67237004 143.62775654 120.27130492 136.09375 125.78125 C134.66522717 126.82689702 133.25741744 127.90134869 131.87015533 129.00114822 C129.55866879 130.61092834 127.60825663 131.66880358 125.08071136 132.81583786 C120.07229575 135.37100408 116.04425243 138.18806245 113 143 C110.08592259 152.78048246 110.88059318 163.61661552 111.05840707 173.72920489 C111.11546814 177.97867397 111.07950644 182.22751648 111.05516052 186.47715759 C111.02562251 193.82948424 111.0542898 201.17970721 111.12312317 208.53174591 C111.22255419 219.16098663 111.23322568 229.78887946 111.22262377 240.41851255 C111.20781419 257.66600604 111.26422882 274.91249549 111.36572266 292.15966797 C111.46412832 308.90808721 111.52881063 325.65608017 111.54833984 342.40478516 C111.54955642 343.43811994 111.550773 344.47145472 111.55202645 345.53610268 C111.55792263 350.72032731 111.56315793 355.90455236 111.56806469 361.08877802 C111.60959004 404.05972747 111.76682628 447.02969174 112 490 C111.67 490 111.34 490 111 490 C111 376.15 111 262.3 111 145 C96.17037476 155.89989939 96.17037476 155.89989939 81.5 167 C74.11503204 172.65540297 66.66801745 178.2147297 59.1640625 183.7109375 C53.22328295 188.07277232 47.3525587 192.52066136 41.5 197 C32.42556837 203.94292126 23.26629995 210.76125331 14.04296875 217.50488281 C12.16110155 218.88210016 10.28301034 220.26427356 8.40625 221.6484375 C6.90578125 222.75058594 6.90578125 222.75058594 5.375 223.875 C4.53710938 224.49117187 3.69921875 225.10734375 2.8359375 225.7421875 C1 227 1 227 0 227 C0 152.09 0 77.18 0 0 Z " fill="#FFFEFD" transform="translate(0,0)"/>
<path d="M0 0 C0.38916009 43.78034143 0.68868747 87.56049972 0.8681106 131.34222995 C0.88937247 136.51168478 0.91137596 141.6811362 0.93383789 146.85058594 C0.94052681 148.39429443 0.94052681 148.39429443 0.94735085 149.96918894 C1.02131274 166.63043507 1.15534218 183.29068347 1.31159753 199.9513378 C1.47060787 217.04841143 1.56500559 234.14496279 1.59950441 251.24274552 C1.62282563 261.79264717 1.69645236 272.339729 1.83457994 282.88876243 C1.92448782 290.12400907 1.95159407 297.35779958 1.92952342 304.5935642 C1.91863694 308.76878531 1.93522797 312.93908448 2.02649307 317.11342812 C2.56312876 343.03515261 2.56312876 343.03515261 -3.13310432 349.20022964 C-13.12892316 357.08328515 -27.1899664 356.29858814 -39.22265625 355.9765625 C-41.3058275 355.95785987 -43.38904341 355.94364962 -45.47227478 355.9336853 C-50.89684272 355.89590547 -56.31863771 355.79803963 -61.74212646 355.68664551 C-67.29970811 355.58346436 -72.85774771 355.53848987 -78.41601562 355.48828125 C-89.2785474 355.38174678 -100.13904118 355.21158179 -111 355 C-111.48138519 320.49438377 -111.8510591 285.98953807 -112.07237192 251.48128548 C-112.09863462 247.40109239 -112.12581559 243.3209059 -112.15356445 239.24072266 C-112.15907297 238.42848179 -112.16458149 237.61624092 -112.17025694 236.7793867 C-112.26146902 223.65241534 -112.4269444 210.52738862 -112.62020872 197.40156835 C-112.81707004 183.91830466 -112.93333207 170.43605435 -112.97585839 156.95141268 C-113.00458141 148.63908111 -113.09502324 140.33224564 -113.2662458 132.02160811 C-113.37785705 126.31102805 -113.41067575 120.60325877 -113.38352893 114.89166903 C-113.37015341 111.60045332 -113.40128423 108.32070296 -113.50331497 105.03077507 C-114.0668828 85.91152988 -114.0668828 85.91152988 -108.97766089 79.42069054 C-104.06020559 74.68487525 -98.56661265 71.07331712 -92.6959604 67.63113308 C-88.41655258 65.04196907 -84.48295905 62.01690758 -80.5 59 C-78.93915325 57.85191564 -77.37683824 56.70582242 -75.8125 55.5625 C-70.66264013 51.76786641 -65.57961221 47.88791433 -60.5 44 C-53.88052853 38.93348372 -47.22495206 33.92567379 -40.5 29 C-31.81807052 22.64052562 -23.25337846 16.13391242 -14.70703125 9.59375 C-13.9176416 8.99175781 -13.12825195 8.38976562 -12.31494141 7.76953125 C-10.76578801 6.58536506 -9.22120356 5.39519872 -7.68115234 4.19921875 C-6.60728271 3.37357422 -6.60728271 3.37357422 -5.51171875 2.53125 C-4.56558716 1.79745117 -4.56558716 1.79745117 -3.6003418 1.04882812 C-2 0 -2 0 0 0 Z " fill="#FF914D" transform="translate(111,145)"/>
<path d="M0 0 C0 90.42 0 180.84 0 274 C-34.98 274 -69.96 274 -106 274 C-106 230.77 -106 187.54 -106 143 C-134.05 143 -162.1 143 -191 143 C-187.81410471 139.81410471 -185.09486437 137.16203218 -181.5859375 134.50390625 C-180.75255859 133.87033203 -179.91917969 133.23675781 -179.06054688 132.58398438 C-178.17431641 131.91689453 -177.28808594 131.24980469 -176.375 130.5625 C-175.44494141 129.85802734 -174.51488281 129.15355469 -173.55664062 128.42773438 C-166.80253406 123.32432595 -159.99637947 118.29392505 -153.16748047 113.29125977 C-147.22523532 108.92913682 -141.35354009 104.48027555 -135.5 100 C-128.11358208 94.34646605 -120.66805534 88.78529806 -113.1640625 83.2890625 C-107.22328567 78.92722968 -101.3524674 74.47945452 -95.5 70 C-88.11358208 64.34646605 -80.66805534 58.78529806 -73.1640625 53.2890625 C-67.22328567 48.92722968 -61.3524674 44.47945452 -55.5 40 C-48.12523087 34.35538199 -40.69234958 28.80169908 -33.19921875 23.31542969 C-25.98399622 18.01921382 -18.86685016 12.59760676 -11.76367188 7.15234375 C-10.92384766 6.50910156 -10.08402344 5.86585937 -9.21875 5.203125 C-8.47560547 4.63239258 -7.73246094 4.06166016 -6.96679688 3.47363281 C-2.33068257 0 -2.33068257 0 0 0 Z " fill="#FF914D" transform="translate(303,1)"/>
<path d="M0 0 C34.98 0 69.96 0 106 0 C106.48363641 33.32165307 106.48363641 33.32165307 106.5859375 47.29101562 C106.6571309 56.93510551 106.74079314 66.57793692 106.90527344 76.22094727 C107.02501304 83.24429595 107.10232725 90.26662352 107.12906194 97.29096454 C107.14468843 101.00980791 107.1812992 104.72573071 107.26876068 108.44363594 C107.36570718 112.59857818 107.36787255 116.74847133 107.36230469 120.90454102 C107.405448 122.13237305 107.44859131 123.36020508 107.49304199 124.62524414 C107.44226314 128.12559025 107.25494968 130.72901323 106 134 C100.60343519 139.22299263 94.01050816 141.78168495 86.5465126 141.87100124 C85.70906384 141.84581449 84.87161507 141.82062773 84.00878906 141.79467773 C83.07559719 141.79552148 82.14240532 141.79636522 81.18093491 141.79723454 C78.20790807 141.79207596 75.23809 141.73909944 72.265625 141.68359375 C70.41131058 141.67328071 68.55697567 141.66615245 66.70263672 141.66223145 C59.88477708 141.62577456 53.06735585 141.52804551 46.25 141.4375 C30.9875 141.293125 15.725 141.14875 0 141 C0 94.47 0 47.94 0 0 Z " fill="#FF914D" transform="translate(197,359)"/>
<path d="M0 0 C0.33 0 0.66 0 1 0 C1 90.09 1 180.18 1 273 C-4.61 273 -10.22 273 -16 273 C-13 270 -13 270 -10.13315201 269.05248165 C-6.07349391 267.56751773 -3.89989358 266.24387655 -1 263 C1.46946162 255.12214057 0.57075869 246.20989151 0.45410156 238.06274414 C0.46057982 235.47059361 0.47233299 232.87845168 0.4889679 230.28634644 C0.51644743 224.70813266 0.50018599 219.13143312 0.4539566 213.55336189 C0.38718338 205.48877959 0.3867764 197.42525973 0.40240797 189.36046594 C0.42597488 176.27542882 0.39609799 163.19108372 0.33251953 150.10620117 C0.27088506 137.39780645 0.23447808 124.68975106 0.23193359 111.98120117 C0.23176791 111.1974604 0.23160222 110.41371963 0.23143151 109.60622913 C0.23075571 105.6743128 0.23057518 101.74239662 0.23064089 97.81048024 C0.23054528 65.20662711 0.14367749 32.60354147 0 0 Z " fill="#FF9655" transform="translate(499,227)"/>
<path d="M0 0 C0 3.3 0 6.6 0 10 C-5.61 10 -11.22 10 -17 10 C-14.08347941 7.08347941 -11.48495487 5.36855829 -7.9375 3.3125 C-6.87402344 2.68988281 -5.81054688 2.06726563 -4.71484375 1.42578125 C-2 0 -2 0 0 0 Z " fill="#FFFCFA" transform="translate(500,490)"/>
</svg>
